<svg xmlns="http://www.w3.org/2000/svg" viewBox="0 0 1180 470" font-family="ui-sans-serif, system-ui, -apple-system, 'Segoe UI', Roboto, sans-serif">
  <rect x="0" y="0" width="1180" height="470" fill="#ffffff"/>
  <text x="32" y="26" font-size="14" font-weight="700" fill="#0f172a">Layout sketch — read-only by default; edit mode is opt-in (indicative, not final visual design)</text>

  <!-- ============ A · DESKTOP, READ-ONLY (DEFAULT) ============ -->
  <g>
    <rect x="20" y="44" width="560" height="384" rx="8" fill="#ffffff" stroke="#cbd5e1"/>
    <rect x="20" y="44" width="560" height="30" fill="#f1f5f9"/>
    <line x1="20" y1="74" x2="580" y2="74" stroke="#e2e8f0"/>
    <text x="34" y="63" font-size="12" font-weight="600" fill="#0f172a">Socio-Legal Associations</text>
    <rect x="250" y="50" width="312" height="18" rx="4" fill="#ffffff" stroke="#cbd5e1"/>
    <text x="258" y="63" font-size="10" fill="#94a3b8">search…</text>

    <rect x="32" y="84" width="200" height="330" rx="6" fill="#f8fafc" stroke="#e2e8f0"/>
    <rect x="42" y="94" width="104" height="18" rx="9" fill="#dbeafe" stroke="#bfdbfe"/>
    <text x="50" y="107" font-size="9" fill="#1e40af">Germany  ×</text>
    <text x="42" y="132" font-size="10" fill="#0f172a">German Association L&amp;S</text>
    <text x="42" y="144" font-size="8" fill="#64748b">national · Germany</text>
    <text x="42" y="164" font-size="10" fill="#0f172a">DGS — Sociology of Law</text>
    <text x="42" y="176" font-size="8" fill="#64748b">section · Germany</text>

    <rect x="40" y="188" width="184" height="210" rx="6" fill="#ffffff" stroke="#cbd5e1"/>
    <text x="50" y="206" font-size="10" font-weight="600" fill="#0f172a">German Association for</text>
    <text x="50" y="218" font-size="10" font-weight="600" fill="#0f172a">Law &amp; Society</text>
    <text x="50" y="234" font-size="8" fill="#64748b">national · Germany</text>
    <text x="50" y="250" font-size="9" fill="#0f172a">seat: Berlin</text>
    <text x="50" y="265" font-size="9" fill="#2563eb">website · institutional email</text>
    <text x="50" y="281" font-size="9" fill="#0f172a">president: E. Kocher</text>
    <text x="50" y="292" font-size="8" fill="#64748b">Europa-Universität Viadrina</text>
    <text x="50" y="308" font-size="9" fill="#0f172a">journal: —</text>
    <text x="50" y="326" font-size="9" fill="#2563eb" text-decoration="underline">Notify me of changes</text>

    <text x="270" y="104" font-size="9" fill="#94a3b8">markers = association seats</text>
    <g stroke="#ffffff" stroke-width="1.5">
      <circle cx="280" cy="150" r="5" fill="#2563eb"/>
      <circle cx="340" cy="130" r="5" fill="#2563eb"/>
      <circle cx="410" cy="155" r="5" fill="#2563eb"/>
      <circle cx="470" cy="125" r="5" fill="#2563eb"/>
      <circle cx="360" cy="235" r="5" fill="#2563eb"/>
      <circle cx="300" cy="300" r="5" fill="#2563eb"/>
    </g>
    <circle cx="500" cy="160" r="11" fill="#2563eb"/>
    <text x="500" y="164" font-size="10" fill="#ffffff" text-anchor="middle">3</text>
    <rect x="250" y="390" width="11" height="11" fill="#ffffff" stroke="#64748b"/>
    <text x="268" y="399" font-size="9" fill="#0f172a">show current leadership</text>

    <text x="32" y="442" font-size="11" fill="#475569">Desktop — read-only (default): no sign-in, no edit controls</text>
  </g>

  <!-- ============ B · MOBILE, READ-ONLY ============ -->
  <g>
    <rect x="612" y="44" width="150" height="330" rx="16" fill="#ffffff" stroke="#cbd5e1"/>
    <rect x="667" y="52" width="40" height="6" rx="3" fill="#e2e8f0"/>
    <rect x="626" y="68" width="120" height="16" rx="8" fill="#f1f5f9" stroke="#e2e8f0"/>
    <text x="632" y="80" font-size="8" fill="#94a3b8">search…</text>
    <g stroke="#ffffff" stroke-width="1.5">
      <circle cx="652" cy="140" r="4" fill="#2563eb"/>
      <circle cx="702" cy="168" r="4" fill="#2563eb"/>
      <circle cx="672" cy="205" r="4" fill="#2563eb"/>
    </g>
    <rect x="618" y="250" width="138" height="118" rx="12" fill="#ffffff" stroke="#e2e8f0"/>
    <rect x="674" y="258" width="24" height="4" rx="2" fill="#cbd5e1"/>
    <text x="630" y="280" font-size="10" font-weight="600" fill="#0f172a">Associations</text>
    <text x="630" y="298" font-size="8" fill="#0f172a">• Berlin AK Rechtswirklichkeit</text>
    <text x="630" y="312" font-size="8" fill="#0f172a">• German Association L&amp;S</text>
    <text x="630" y="326" font-size="8" fill="#0f172a">• DGS — Sociology of Law</text>
    <text x="630" y="344" font-size="8" fill="#94a3b8">(drag up for the full list)</text>

    <text x="612" y="442" font-size="11" fill="#475569">Mobile — read-only</text>
  </g>

  <!-- ============ C · EDIT MODE (opened with ?edit) ============ -->
  <g>
    <rect x="792" y="44" width="368" height="384" rx="8" fill="#ffffff" stroke="#cbd5e1"/>
    <rect x="792" y="44" width="368" height="30" fill="#f1f5f9"/>
    <line x1="792" y1="74" x2="1160" y2="74" stroke="#e2e8f0"/>
    <text x="806" y="63" font-size="12" font-weight="600" fill="#0f172a">Socio-Legal Associations</text>
    <rect x="980" y="50" width="90" height="18" rx="4" fill="#ffffff" stroke="#cbd5e1"/>
    <text x="988" y="63" font-size="9" fill="#94a3b8">search…</text>
    <rect x="1080" y="50" width="66" height="18" rx="9" fill="#fef3c7" stroke="#fde68a"/>
    <text x="1113" y="63" font-size="9" fill="#b45309" text-anchor="middle">Edit mode</text>

    <rect x="806" y="90" width="150" height="212" rx="6" fill="#ffffff" stroke="#cbd5e1"/>
    <text x="814" y="108" font-size="9" font-weight="600" fill="#0f172a">German Association for</text>
    <text x="814" y="120" font-size="9" font-weight="600" fill="#0f172a">Law &amp; Society</text>
    <text x="814" y="136" font-size="8" fill="#64748b">national · Germany</text>
    <text x="814" y="152" font-size="8" fill="#0f172a">seat: Berlin</text>
    <text x="814" y="168" font-size="8" fill="#2563eb">website · email</text>
    <text x="814" y="184" font-size="8" fill="#0f172a">president: E. Kocher</text>
    <text x="814" y="196" font-size="7" fill="#64748b">Europa-Univ. Viadrina</text>
    <text x="814" y="212" font-size="8" fill="#0f172a">journal: —</text>
    <rect x="814" y="224" width="44" height="18" rx="4" fill="#2563eb"/>
    <text x="836" y="237" font-size="9" fill="#ffffff" text-anchor="middle">Edit</text>
    <rect x="866" y="224" width="78" height="18" rx="4" fill="#ffffff" stroke="#2563eb"/>
    <text x="905" y="237" font-size="9" fill="#2563eb" text-anchor="middle">Notify me</text>

    <rect x="968" y="86" width="180" height="326" rx="8" fill="#ffffff" stroke="#cbd5e1"/>
    <rect x="968" y="86" width="180" height="24" fill="#f1f5f9"/>
    <line x1="968" y1="110" x2="1148" y2="110" stroke="#e2e8f0"/>
    <text x="978" y="102" font-size="10" font-weight="600" fill="#0f172a">Add association</text>
    <text x="1136" y="102" font-size="10" fill="#64748b" text-anchor="middle">×</text>
    <text x="978" y="127" font-size="10" fill="#94a3b8"><tspan fill="#2563eb" font-weight="600">1 Identify</tspan><tspan>   2   3</tspan></text>
    <text x="978" y="141" font-size="9" fill="#94a3b8">4   5   6 Review</text>
    <line x1="968" y1="150" x2="1148" y2="150" stroke="#e2e8f0"/>
    <text x="978" y="168" font-size="9" fill="#64748b">Name</text>
    <rect x="978" y="174" width="160" height="20" rx="4" fill="#ffffff" stroke="#cbd5e1"/>
    <text x="984" y="188" font-size="9" fill="#0f172a">Asian Law and Society…</text>
    <text x="978" y="212" font-size="9" fill="#64748b">matches on Wikidata:</text>
    <circle cx="984" cy="226" r="4" fill="#ffffff" stroke="#64748b"/>
    <text x="994" y="230" font-size="8" fill="#0f172a">Asian Law and Society Assoc.</text>
    <circle cx="984" cy="244" r="4" fill="#ffffff" stroke="#64748b"/>
    <text x="994" y="248" font-size="8" fill="#0f172a">Asian Law Institute</text>
    <rect x="978" y="258" width="156" height="18" rx="4" fill="#ffffff" stroke="#2563eb" stroke-dasharray="4 3"/>
    <text x="984" y="271" font-size="8" fill="#2563eb">None of these — create new</text>
    <line x1="968" y1="384" x2="1148" y2="384" stroke="#e2e8f0"/>
    <rect x="1000" y="390" width="46" height="16" rx="4" fill="#ffffff" stroke="#cbd5e1"/>
    <text x="1023" y="402" font-size="8" fill="#64748b" text-anchor="middle">Back</text>
    <rect x="1052" y="390" width="50" height="16" rx="4" fill="#2563eb"/>
    <text x="1077" y="402" font-size="8" fill="#ffffff" text-anchor="middle">Next</text>

    <text x="792" y="442" font-size="11" fill="#475569">Edit mode — opened with ?edit.</text>
    <text x="792" y="456" font-size="11" fill="#475569">Edit buttons appear; connect a Wikimedia account once.</text>
  </g>
</svg>
